<svg width="35" height="23" viewBox="0 0 35 23" fill="none" xmlns="http://www.w3.org/2000/svg">
<path d="M5.38309 12.49H10.6331L17.2031 22H11.2631L5.38309 12.49ZM0.133086 0.999999H5.20309V22H0.133086V0.999999ZM3.31309 5.29V0.999999H7.78309C9.58309 0.999999 11.0831 1.29 12.2831 1.87C13.4831 2.45 14.3931 3.26 15.0131 4.3C15.6331 5.32 15.9431 6.51 15.9431 7.87C15.9431 9.21 15.6331 10.4 15.0131 11.44C14.3931 12.46 13.4831 13.26 12.2831 13.84C11.0831 14.42 9.58309 14.71 7.78309 14.71H3.31309V10.78H7.42309C8.10309 10.78 8.68309 10.68 9.16309 10.48C9.66309 10.26 10.0431 9.95 10.3031 9.55C10.5631 9.13 10.6931 8.63 10.6931 8.05C10.6931 7.47 10.5631 6.98 10.3031 6.58C10.0431 6.16 9.66309 5.84 9.16309 5.62C8.68309 5.4 8.10309 5.29 7.42309 5.29H3.31309ZM21.8669 14.62C22.2869 15.38 22.7569 16.04 23.2769 16.6C23.8169 17.16 24.3969 17.59 25.0169 17.89C25.6569 18.19 26.3269 18.34 27.0269 18.34C27.7669 18.34 28.3769 18.16 28.8569 17.8C29.3369 17.42 29.5769 16.91 29.5769 16.27C29.5769 15.73 29.4369 15.3 29.1569 14.98C28.8769 14.64 28.4269 14.32 27.8069 14.02C27.1869 13.72 26.3669 13.38 25.3469 13C24.8469 12.82 24.2669 12.57 23.6069 12.25C22.9669 11.93 22.3569 11.52 21.7769 11.02C21.1969 10.5 20.7169 9.88 20.3369 9.16C19.9569 8.42 19.7669 7.53 19.7669 6.49C19.7669 5.25 20.0869 4.18 20.7269 3.28C21.3869 2.38 22.2669 1.7 23.3669 1.24C24.4869 0.759999 25.7269 0.519999 27.0869 0.519999C28.4869 0.519999 29.6969 0.749999 30.7169 1.21C31.7569 1.67 32.6169 2.25 33.2969 2.95C33.9769 3.65 34.4969 4.36 34.8569 5.08L30.9869 7.24C30.6869 6.74 30.3369 6.31 29.9369 5.95C29.5569 5.57 29.1269 5.28 28.6469 5.08C28.1869 4.86 27.6869 4.75 27.1469 4.75C26.4269 4.75 25.8769 4.91 25.4969 5.23C25.1169 5.53 24.9269 5.91 24.9269 6.37C24.9269 6.85 25.1069 7.27 25.4669 7.63C25.8469 7.99 26.3769 8.32 27.0569 8.62C27.7569 8.92 28.5969 9.24 29.5769 9.58C30.3169 9.86 31.0069 10.19 31.6469 10.57C32.2869 10.93 32.8469 11.37 33.3269 11.89C33.8269 12.41 34.2169 13.01 34.4969 13.69C34.7769 14.37 34.9169 15.15 34.9169 16.03C34.9169 17.09 34.6969 18.04 34.2569 18.88C33.8369 19.7 33.2569 20.39 32.5169 20.95C31.7969 21.51 30.9669 21.93 30.0269 22.21C29.1069 22.51 28.1569 22.66 27.1769 22.66C25.8169 22.66 24.5469 22.42 23.3669 21.94C22.2069 21.44 21.1969 20.77 20.3369 19.93C19.4769 19.09 18.8069 18.17 18.3269 17.17L21.8669 14.62Z" fill="#141024"/>
</svg>
