<svg width="24" height="24" viewBox="0 0 24 24" fill="none" xmlns="http://www.w3.org/2000/svg">
<path d="M23.3765 12C23.3765 18.3537 18.253 23.5 11.9383 23.5C5.62351 23.5 0.5 18.3537 0.5 12C0.5 5.64629 5.62351 0.5 11.9383 0.5C18.253 0.5 23.3765 5.64629 23.3765 12Z" stroke="#141024"/>
<path d="M11.4893 7.8695C10.8988 7.8695 10.6035 7.5895 10.6035 7.0295C10.6035 6.4807 10.8988 6.2063 11.4893 6.2063C12.0799 6.2063 12.3752 6.4807 12.3752 7.0295C12.3752 7.5895 12.0799 7.8695 11.4893 7.8695ZM11.4893 18.0839C11.0436 18.0839 10.8208 17.8375 10.8208 17.3447V10.4735C10.8208 9.9919 11.0436 9.7511 11.4893 9.7511C11.9462 9.7511 12.1746 9.9919 12.1746 10.4735V17.3447C12.1746 17.8375 11.9462 18.0839 11.4893 18.0839Z" fill="#141024"/>
</svg>
