<svg width="40" height="40" viewBox="0 0 40 40" fill="none" xmlns="http://www.w3.org/2000/svg">
<path fill-rule="evenodd" clip-rule="evenodd" d="M3.33317 20C3.33317 29.2 10.8165 36.6667 19.9998 36.6667L20.4661 36.6603C29.4508 36.4131 36.6665 29.0441 36.6665 20C36.6665 10.8167 29.1998 3.33337 19.9998 3.33337C10.8165 3.33337 3.33317 10.8167 3.33317 20ZM23.2998 13.3334C23.7832 13.8334 23.7832 14.6167 23.2832 15.1L18.3665 20L23.2832 24.9C23.7832 25.3834 23.7832 26.1834 23.2998 26.6667C22.7998 27.1667 22.0165 27.1667 21.5332 26.6667L15.7165 20.8834C15.4832 20.65 15.3498 20.3334 15.3498 20C15.3498 19.6667 15.4832 19.35 15.7165 19.1167L21.5332 13.3334C21.7665 13.0834 22.0832 12.9667 22.3998 12.9667C22.7332 12.9667 23.0498 13.0834 23.2998 13.3334Z" fill="#141024"/>
</svg>
